# xmcd CD database file
#
# Track frame offsets:
#	200
#	11020
#	21897
#	38505
#	51100
#	64507
#	78907
#	88505
#	102797
#	117087
#
# Disc length: 1750 seconds
#
# Revision: 0
# Processed by: cddbd v1.4PL0 Copyright (c) Steve Scherf et al.
# Submitted via: CDex 1.50
#
DISCID=6906d40a
DTITLE=Sonny D. - That's Why I Do What I Do
DYEAR=1995
DGENRE=Country
TTITLE0=That's Why I Do What I Do
TTITLE1=Little Miss Goodie Two Shoes
TTITLE2=Show Me That Way
TTITLE3=The Right Woman
TTITLE4=This Long Rollin' Highway
TTITLE5=Angels Don't Fly
TTITLE6=I Got The Raw End of the Deal
TTITLE7=I'm So Glad Your Mine
TTITLE8=I'm Not a One Woman Man
TTITLE9=My Little Woman's Everything To Me
EXTD=YEAR: 1995
EXTT0=
EXTT1=
EXTT2=
EXTT3=
EXTT4=
EXTT5=
EXTT6=
EXTT7=
EXTT8=
EXTT9=
PLAYORDER=
